<svg xmlns="http://www.w3.org/2000/svg" width="1200" height="630" viewBox="0 0 1200 630" fill="none">
  <defs>
    <linearGradient id="bg" x1="0" y1="0" x2="1200" y2="630" gradientUnits="userSpaceOnUse">
      <stop stop-color="#050B12"/>
      <stop offset="0.55" stop-color="#0B1626"/>
      <stop offset="1" stop-color="#050B12"/>
    </linearGradient>
    <radialGradient id="glow1" cx="0" cy="0" r="1" gradientUnits="userSpaceOnUse" gradientTransform="translate(330 190) rotate(20) scale(560 400)">
      <stop stop-color="#22C55E" stop-opacity="0.22"/>
      <stop offset="1" stop-color="#22C55E" stop-opacity="0"/>
    </radialGradient>
    <radialGradient id="glow2" cx="0" cy="0" r="1" gradientUnits="userSpaceOnUse" gradientTransform="translate(900 420) rotate(-10) scale(560 420)">
      <stop stop-color="#3B82F6" stop-opacity="0.22"/>
      <stop offset="1" stop-color="#3B82F6" stop-opacity="0"/>
    </radialGradient>
    <linearGradient id="accent" x1="240" y1="120" x2="1020" y2="520" gradientUnits="userSpaceOnUse">
      <stop stop-color="#22C55E"/>
      <stop offset="0.5" stop-color="#3B82F6"/>
      <stop offset="1" stop-color="#A78BFA"/>
    </linearGradient>
  </defs>

  <rect width="1200" height="630" fill="url(#bg)"/>
  <rect width="1200" height="630" fill="url(#glow1)"/>
  <rect width="1200" height="630" fill="url(#glow2)"/>

  <rect x="86" y="96" width="1028" height="438" rx="28" fill="#FFFFFF" fill-opacity="0.05" stroke="#FFFFFF" stroke-opacity="0.12"/>

  <g transform="translate(860 210)">
    <rect x="0" y="0" width="240" height="240" rx="28" fill="#FFFFFF" fill-opacity="0.06" stroke="#FFFFFF" stroke-opacity="0.14"/>
    <path d="M70 165V115C70 86.490 93.490 63 122 63H155C183.510 63 207 86.490 207 115V165" stroke="#FFFFFF" stroke-opacity="0.30" stroke-width="10" stroke-linecap="round"/>
    <path d="M92 160L115 135L140 150L168 115L194 130" stroke="url(#accent)" stroke-width="10" stroke-linecap="round" stroke-linejoin="round"/>
    <path d="M84 176H196" stroke="#FFFFFF" stroke-opacity="0.22" stroke-width="12" stroke-linecap="round"/>
  </g>

  <text x="116" y="280" fill="#E5E7EB" font-family="ui-sans-serif, system-ui, -apple-system, Segoe UI, Roboto, Helvetica, Arial" font-size="54" font-weight="850">
    Shravi Finance
  </text>
  <text x="116" y="332" fill="#E5E7EB" fill-opacity="0.85" font-family="ui-sans-serif, system-ui, -apple-system, Segoe UI, Roboto, Helvetica, Arial" font-size="26" font-weight="650">
    Financial Partner Website
  </text>
  <text x="116" y="380" fill="#E5E7EB" fill-opacity="0.68" font-family="ui-sans-serif, system-ui, -apple-system, Segoe UI, Roboto, Helvetica, Arial" font-size="22">
    Trust-focused landing with services and lead capture
  </text>
</svg>
